<mxfile host="app.diagrams.net" modified="2024-06-19T03:35:05.348Z" agent="Mozilla/5.0 (Windows NT 10.0; Win64; x64) AppleWebKit/537.36 (KHTML, like Gecko) Chrome/125.0.0.0 Safari/537.36" etag="GRGDWgjlCBfoh0xz4Uqf" version="24.5.5" type="github">
  <diagram id="prtHgNgQTEPvFCAcTncT" name="Page-1">
    <mxGraphModel dx="1509" dy="796" grid="1" gridSize="10" guides="1" tooltips="1" connect="1" arrows="1" fold="1" page="1" pageScale="1" pageWidth="1169" pageHeight="827" math="0" shadow="0">
      <root>
        <mxCell id="0" />
        <mxCell id="1" parent="0" />
        <mxCell id="Q3Qc4RJNEyqU-LYfuUZ3-5" value="Pool" style="swimlane;whiteSpace=wrap;html=1;strokeColor=#E07A5F;fontColor=#393C56;fillColor=#F2CC8F;" vertex="1" parent="1">
          <mxGeometry x="320" y="80" width="1650" height="700" as="geometry" />
        </mxCell>
        <mxCell id="Q3Qc4RJNEyqU-LYfuUZ3-9" value="Platform" style="swimlane;whiteSpace=wrap;html=1;strokeColor=#E07A5F;fontColor=#393C56;fillColor=#F2CC8F;startSize=23;" vertex="1" parent="Q3Qc4RJNEyqU-LYfuUZ3-5">
          <mxGeometry x="1010" y="20" width="640" height="680" as="geometry" />
        </mxCell>
        <mxCell id="Q3Qc4RJNEyqU-LYfuUZ3-10" value="&lt;font style=&quot;font-size: 18px;&quot;&gt;Postgres&lt;/font&gt;" style="strokeWidth=2;html=1;shape=mxgraph.flowchart.database;whiteSpace=wrap;strokeColor=#E07A5F;fontColor=#393C56;fillColor=#F2CC8F;labelPosition=center;verticalLabelPosition=top;align=center;verticalAlign=bottom;" vertex="1" parent="Q3Qc4RJNEyqU-LYfuUZ3-9">
          <mxGeometry x="115" y="60" width="410" height="290" as="geometry" />
        </mxCell>
        <mxCell id="Q3Qc4RJNEyqU-LYfuUZ3-16" value="&lt;font style=&quot;font-size: 18px;&quot;&gt;Docker&lt;/font&gt;" style="rounded=1;whiteSpace=wrap;html=1;strokeColor=#E07A5F;fontColor=#393C56;fillColor=#F2CC8F;labelPosition=center;verticalLabelPosition=top;align=center;verticalAlign=bottom;" vertex="1" parent="Q3Qc4RJNEyqU-LYfuUZ3-9">
          <mxGeometry x="310" y="410" width="120" height="180" as="geometry" />
        </mxCell>
        <mxCell id="Q3Qc4RJNEyqU-LYfuUZ3-17" value="&lt;font style=&quot;font-size: 18px;&quot;&gt;Redis&lt;/font&gt;" style="rounded=1;whiteSpace=wrap;html=1;strokeColor=#E07A5F;fontColor=#393C56;fillColor=#F2CC8F;" vertex="1" parent="Q3Qc4RJNEyqU-LYfuUZ3-9">
          <mxGeometry x="330" y="460" width="80" height="60" as="geometry" />
        </mxCell>
        <mxCell id="Q3Qc4RJNEyqU-LYfuUZ3-19" value="User" style="swimlane;fontStyle=0;childLayout=stackLayout;horizontal=1;startSize=30;horizontalStack=0;resizeParent=1;resizeParentMax=0;resizeLast=0;collapsible=1;marginBottom=0;whiteSpace=wrap;html=1;strokeColor=#E07A5F;fontColor=#393C56;fillColor=#F2CC8F;" vertex="1" parent="Q3Qc4RJNEyqU-LYfuUZ3-9">
          <mxGeometry x="160" y="180" width="140" height="60" as="geometry" />
        </mxCell>
        <mxCell id="Q3Qc4RJNEyqU-LYfuUZ3-20" value="id&amp;nbsp;" style="text;strokeColor=none;fillColor=none;align=left;verticalAlign=middle;spacingLeft=4;spacingRight=4;overflow=hidden;points=[[0,0.5],[1,0.5]];portConstraint=eastwest;rotatable=0;whiteSpace=wrap;html=1;fontColor=#393C56;" vertex="1" parent="Q3Qc4RJNEyqU-LYfuUZ3-19">
          <mxGeometry y="30" width="140" height="30" as="geometry" />
        </mxCell>
        <mxCell id="Q3Qc4RJNEyqU-LYfuUZ3-23" value="Tier" style="swimlane;fontStyle=0;childLayout=stackLayout;horizontal=1;startSize=30;horizontalStack=0;resizeParent=1;resizeParentMax=0;resizeLast=0;collapsible=1;marginBottom=0;whiteSpace=wrap;html=1;strokeColor=#E07A5F;fontColor=#393C56;fillColor=#F2CC8F;" vertex="1" parent="Q3Qc4RJNEyqU-LYfuUZ3-9">
          <mxGeometry x="350" y="180" width="140" height="60" as="geometry" />
        </mxCell>
        <mxCell id="Q3Qc4RJNEyqU-LYfuUZ3-24" value="id&amp;nbsp;" style="text;strokeColor=none;fillColor=none;align=left;verticalAlign=middle;spacingLeft=4;spacingRight=4;overflow=hidden;points=[[0,0.5],[1,0.5]];portConstraint=eastwest;rotatable=0;whiteSpace=wrap;html=1;fontColor=#393C56;" vertex="1" parent="Q3Qc4RJNEyqU-LYfuUZ3-23">
          <mxGeometry y="30" width="140" height="30" as="geometry" />
        </mxCell>
        <mxCell id="Q3Qc4RJNEyqU-LYfuUZ3-18" value="Java" style="swimlane;whiteSpace=wrap;html=1;strokeColor=#E07A5F;fontColor=#393C56;fillColor=#F2CC8F;" vertex="1" parent="Q3Qc4RJNEyqU-LYfuUZ3-5">
          <mxGeometry y="20" width="1010" height="680" as="geometry" />
        </mxCell>
        <mxCell id="Q3Qc4RJNEyqU-LYfuUZ3-6" value="PointsController" style="swimlane;whiteSpace=wrap;html=1;strokeColor=#E07A5F;fontColor=#393C56;fillColor=#F2CC8F;" vertex="1" parent="Q3Qc4RJNEyqU-LYfuUZ3-18">
          <mxGeometry y="20" width="310" height="660" as="geometry" />
        </mxCell>
        <mxCell id="Q3Qc4RJNEyqU-LYfuUZ3-27" value="POST&lt;div&gt;/api/v1/points/issue&lt;br&gt;@Param id&lt;br&gt;@Param points&lt;/div&gt;" style="rounded=1;whiteSpace=wrap;html=1;strokeColor=#E07A5F;fontColor=#393C56;fillColor=#F2CC8F;" vertex="1" parent="Q3Qc4RJNEyqU-LYfuUZ3-6">
          <mxGeometry x="95" y="50" width="120" height="60" as="geometry" />
        </mxCell>
        <mxCell id="Q3Qc4RJNEyqU-LYfuUZ3-7" value="PointsService" style="swimlane;whiteSpace=wrap;html=1;strokeColor=#E07A5F;fontColor=#393C56;fillColor=#F2CC8F;startSize=23;" vertex="1" parent="Q3Qc4RJNEyqU-LYfuUZ3-18">
          <mxGeometry x="310" y="20" width="250" height="660" as="geometry" />
        </mxCell>
        <mxCell id="Q3Qc4RJNEyqU-LYfuUZ3-99" style="edgeStyle=orthogonalEdgeStyle;rounded=0;orthogonalLoop=1;jettySize=auto;html=1;strokeColor=#E07A5F;fontColor=#393C56;fillColor=#F2CC8F;exitX=0.872;exitY=1.002;exitDx=0;exitDy=0;entryX=0.87;entryY=0.001;entryDx=0;entryDy=0;exitPerimeter=0;entryPerimeter=0;" edge="1" parent="Q3Qc4RJNEyqU-LYfuUZ3-7" source="Q3Qc4RJNEyqU-LYfuUZ3-42" target="Q3Qc4RJNEyqU-LYfuUZ3-48">
          <mxGeometry relative="1" as="geometry">
            <mxPoint x="210" y="410" as="sourcePoint" />
            <mxPoint x="220" y="580" as="targetPoint" />
          </mxGeometry>
        </mxCell>
        <mxCell id="Q3Qc4RJNEyqU-LYfuUZ3-100" value="unlock" style="edgeLabel;html=1;align=center;verticalAlign=middle;resizable=0;points=[];strokeColor=#E07A5F;fontColor=#393C56;fillColor=#F2CC8F;" vertex="1" connectable="0" parent="Q3Qc4RJNEyqU-LYfuUZ3-99">
          <mxGeometry x="-0.0618" y="-2" relative="1" as="geometry">
            <mxPoint as="offset" />
          </mxGeometry>
        </mxCell>
        <mxCell id="Q3Qc4RJNEyqU-LYfuUZ3-42" value="issuePointsService(&lt;div&gt;id, points )&lt;/div&gt;" style="rounded=1;whiteSpace=wrap;html=1;strokeColor=#E07A5F;fontColor=#393C56;fillColor=#F2CC8F;" vertex="1" parent="Q3Qc4RJNEyqU-LYfuUZ3-7">
          <mxGeometry x="30" y="50" width="160" height="350" as="geometry" />
        </mxCell>
        <mxCell id="Q3Qc4RJNEyqU-LYfuUZ3-81" style="edgeStyle=orthogonalEdgeStyle;rounded=0;orthogonalLoop=1;jettySize=auto;html=1;strokeColor=#E07A5F;fontColor=#393C56;fillColor=#F2CC8F;entryX=0.5;entryY=1;entryDx=0;entryDy=0;exitX=0.472;exitY=-0.01;exitDx=0;exitDy=0;exitPerimeter=0;" edge="1" parent="Q3Qc4RJNEyqU-LYfuUZ3-7" source="Q3Qc4RJNEyqU-LYfuUZ3-48" target="Q3Qc4RJNEyqU-LYfuUZ3-42">
          <mxGeometry relative="1" as="geometry">
            <mxPoint x="110" y="588" as="sourcePoint" />
            <mxPoint x="140" y="430" as="targetPoint" />
          </mxGeometry>
        </mxCell>
        <mxCell id="Q3Qc4RJNEyqU-LYfuUZ3-82" value="locked" style="edgeLabel;html=1;align=center;verticalAlign=middle;resizable=0;points=[];strokeColor=#E07A5F;fontColor=#393C56;fillColor=#F2CC8F;" vertex="1" connectable="0" parent="Q3Qc4RJNEyqU-LYfuUZ3-81">
          <mxGeometry x="0.0116" y="2" relative="1" as="geometry">
            <mxPoint as="offset" />
          </mxGeometry>
        </mxCell>
        <mxCell id="Q3Qc4RJNEyqU-LYfuUZ3-48" value="Lock" style="rounded=1;whiteSpace=wrap;html=1;strokeColor=#E07A5F;fontColor=#393C56;fillColor=#F2CC8F;" vertex="1" parent="Q3Qc4RJNEyqU-LYfuUZ3-7">
          <mxGeometry x="40" y="590" width="150" height="60" as="geometry" />
        </mxCell>
        <mxCell id="Q3Qc4RJNEyqU-LYfuUZ3-64" style="edgeStyle=orthogonalEdgeStyle;rounded=0;orthogonalLoop=1;jettySize=auto;html=1;strokeColor=#E07A5F;fontColor=#393C56;fillColor=#F2CC8F;exitX=0.154;exitY=1.002;exitDx=0;exitDy=0;exitPerimeter=0;entryX=0.096;entryY=0.031;entryDx=0;entryDy=0;entryPerimeter=0;" edge="1" parent="Q3Qc4RJNEyqU-LYfuUZ3-7" source="Q3Qc4RJNEyqU-LYfuUZ3-42" target="Q3Qc4RJNEyqU-LYfuUZ3-48">
          <mxGeometry relative="1" as="geometry">
            <mxPoint x="167" y="400" as="sourcePoint" />
            <mxPoint x="50" y="590" as="targetPoint" />
          </mxGeometry>
        </mxCell>
        <mxCell id="Q3Qc4RJNEyqU-LYfuUZ3-65" value="get Lock" style="edgeLabel;html=1;align=center;verticalAlign=middle;resizable=0;points=[];strokeColor=#E07A5F;fontColor=#393C56;fillColor=#F2CC8F;" vertex="1" connectable="0" parent="Q3Qc4RJNEyqU-LYfuUZ3-64">
          <mxGeometry x="-0.0792" y="-3" relative="1" as="geometry">
            <mxPoint as="offset" />
          </mxGeometry>
        </mxCell>
        <mxCell id="Q3Qc4RJNEyqU-LYfuUZ3-8" value="UserRepository" style="swimlane;whiteSpace=wrap;html=1;strokeColor=#E07A5F;fontColor=#393C56;fillColor=#F2CC8F;" vertex="1" parent="Q3Qc4RJNEyqU-LYfuUZ3-18">
          <mxGeometry x="560" y="20" width="250" height="660" as="geometry" />
        </mxCell>
        <mxCell id="Q3Qc4RJNEyqU-LYfuUZ3-46" value="findById(id)" style="rounded=1;whiteSpace=wrap;html=1;strokeColor=#E07A5F;fontColor=#393C56;fillColor=#F2CC8F;" vertex="1" parent="Q3Qc4RJNEyqU-LYfuUZ3-8">
          <mxGeometry x="70" y="50" width="120" height="60" as="geometry" />
        </mxCell>
        <mxCell id="Q3Qc4RJNEyqU-LYfuUZ3-91" value="issuePointsQuery(&lt;div&gt;id, newPoints)&lt;/div&gt;" style="rounded=1;whiteSpace=wrap;html=1;strokeColor=#E07A5F;fontColor=#393C56;fillColor=#F2CC8F;" vertex="1" parent="Q3Qc4RJNEyqU-LYfuUZ3-8">
          <mxGeometry x="67.5" y="330" width="125" height="60" as="geometry" />
        </mxCell>
        <mxCell id="Q3Qc4RJNEyqU-LYfuUZ3-43" style="edgeStyle=orthogonalEdgeStyle;rounded=0;orthogonalLoop=1;jettySize=auto;html=1;exitX=1;exitY=0.5;exitDx=0;exitDy=0;entryX=0.004;entryY=0.124;entryDx=0;entryDy=0;strokeColor=#E07A5F;fontColor=#393C56;fillColor=#F2CC8F;entryPerimeter=0;" edge="1" parent="Q3Qc4RJNEyqU-LYfuUZ3-18" source="Q3Qc4RJNEyqU-LYfuUZ3-27" target="Q3Qc4RJNEyqU-LYfuUZ3-42">
          <mxGeometry relative="1" as="geometry" />
        </mxCell>
        <mxCell id="Q3Qc4RJNEyqU-LYfuUZ3-68" value="Call service" style="edgeLabel;html=1;align=center;verticalAlign=middle;resizable=0;points=[];strokeColor=#E07A5F;fontColor=#393C56;fillColor=#F2CC8F;" vertex="1" connectable="0" parent="Q3Qc4RJNEyqU-LYfuUZ3-43">
          <mxGeometry x="-0.0925" relative="1" as="geometry">
            <mxPoint as="offset" />
          </mxGeometry>
        </mxCell>
        <mxCell id="Q3Qc4RJNEyqU-LYfuUZ3-57" value="TierRepository" style="swimlane;whiteSpace=wrap;html=1;strokeColor=#E07A5F;fontColor=#393C56;fillColor=#F2CC8F;" vertex="1" parent="Q3Qc4RJNEyqU-LYfuUZ3-18">
          <mxGeometry x="810" y="20" width="200" height="660" as="geometry" />
        </mxCell>
        <mxCell id="Q3Qc4RJNEyqU-LYfuUZ3-59" value="findById(id)" style="rounded=1;whiteSpace=wrap;html=1;strokeColor=#E07A5F;fontColor=#393C56;fillColor=#F2CC8F;" vertex="1" parent="Q3Qc4RJNEyqU-LYfuUZ3-57">
          <mxGeometry x="39" y="170" width="120" height="60" as="geometry" />
        </mxCell>
        <mxCell id="Q3Qc4RJNEyqU-LYfuUZ3-71" style="edgeStyle=orthogonalEdgeStyle;rounded=0;orthogonalLoop=1;jettySize=auto;html=1;exitX=1.003;exitY=0.085;exitDx=0;exitDy=0;entryX=0;entryY=0.5;entryDx=0;entryDy=0;strokeColor=#E07A5F;fontColor=#393C56;fillColor=#F2CC8F;exitPerimeter=0;" edge="1" parent="Q3Qc4RJNEyqU-LYfuUZ3-18" source="Q3Qc4RJNEyqU-LYfuUZ3-42" target="Q3Qc4RJNEyqU-LYfuUZ3-46">
          <mxGeometry relative="1" as="geometry" />
        </mxCell>
        <mxCell id="Q3Qc4RJNEyqU-LYfuUZ3-73" value="Call user repository" style="edgeLabel;html=1;align=center;verticalAlign=middle;resizable=0;points=[];strokeColor=#E07A5F;fontColor=#393C56;fillColor=#F2CC8F;" vertex="1" connectable="0" parent="Q3Qc4RJNEyqU-LYfuUZ3-71">
          <mxGeometry x="-0.1668" y="3" relative="1" as="geometry">
            <mxPoint as="offset" />
          </mxGeometry>
        </mxCell>
        <mxCell id="Q3Qc4RJNEyqU-LYfuUZ3-78" style="edgeStyle=orthogonalEdgeStyle;rounded=0;orthogonalLoop=1;jettySize=auto;html=1;exitX=0;exitY=0.75;exitDx=0;exitDy=0;strokeColor=#E07A5F;fontColor=#393C56;fillColor=#F2CC8F;entryX=1.003;entryY=0.127;entryDx=0;entryDy=0;entryPerimeter=0;" edge="1" parent="Q3Qc4RJNEyqU-LYfuUZ3-18" source="Q3Qc4RJNEyqU-LYfuUZ3-46" target="Q3Qc4RJNEyqU-LYfuUZ3-42">
          <mxGeometry relative="1" as="geometry">
            <mxPoint x="501" y="138" as="targetPoint" />
          </mxGeometry>
        </mxCell>
        <mxCell id="Q3Qc4RJNEyqU-LYfuUZ3-79" value="User" style="edgeLabel;html=1;align=center;verticalAlign=middle;resizable=0;points=[];strokeColor=#E07A5F;fontColor=#393C56;fillColor=#F2CC8F;" vertex="1" connectable="0" parent="Q3Qc4RJNEyqU-LYfuUZ3-78">
          <mxGeometry x="0.102" y="3" relative="1" as="geometry">
            <mxPoint as="offset" />
          </mxGeometry>
        </mxCell>
        <mxCell id="Q3Qc4RJNEyqU-LYfuUZ3-83" style="edgeStyle=orthogonalEdgeStyle;rounded=0;orthogonalLoop=1;jettySize=auto;html=1;exitX=0.996;exitY=0.371;exitDx=0;exitDy=0;strokeColor=#E07A5F;fontColor=#393C56;fillColor=#F2CC8F;entryX=0;entryY=0.188;entryDx=0;entryDy=0;entryPerimeter=0;exitPerimeter=0;" edge="1" parent="Q3Qc4RJNEyqU-LYfuUZ3-18" source="Q3Qc4RJNEyqU-LYfuUZ3-42" target="Q3Qc4RJNEyqU-LYfuUZ3-59">
          <mxGeometry relative="1" as="geometry">
            <mxPoint x="850" y="170" as="targetPoint" />
          </mxGeometry>
        </mxCell>
        <mxCell id="Q3Qc4RJNEyqU-LYfuUZ3-85" value="Call tier repository" style="edgeLabel;html=1;align=center;verticalAlign=middle;resizable=0;points=[];strokeColor=#E07A5F;fontColor=#393C56;fillColor=#F2CC8F;" vertex="1" connectable="0" parent="Q3Qc4RJNEyqU-LYfuUZ3-83">
          <mxGeometry x="-0.0243" y="-1" relative="1" as="geometry">
            <mxPoint x="-1" as="offset" />
          </mxGeometry>
        </mxCell>
        <mxCell id="Q3Qc4RJNEyqU-LYfuUZ3-89" style="edgeStyle=orthogonalEdgeStyle;rounded=0;orthogonalLoop=1;jettySize=auto;html=1;exitX=0;exitY=0.75;exitDx=0;exitDy=0;strokeColor=#E07A5F;fontColor=#393C56;fillColor=#F2CC8F;entryX=0.99;entryY=0.473;entryDx=0;entryDy=0;entryPerimeter=0;" edge="1" parent="Q3Qc4RJNEyqU-LYfuUZ3-18" source="Q3Qc4RJNEyqU-LYfuUZ3-59" target="Q3Qc4RJNEyqU-LYfuUZ3-42">
          <mxGeometry relative="1" as="geometry">
            <mxPoint x="500" y="206" as="targetPoint" />
          </mxGeometry>
        </mxCell>
        <mxCell id="Q3Qc4RJNEyqU-LYfuUZ3-90" value="Tier" style="edgeLabel;html=1;align=center;verticalAlign=middle;resizable=0;points=[];strokeColor=#E07A5F;fontColor=#393C56;fillColor=#F2CC8F;" vertex="1" connectable="0" parent="Q3Qc4RJNEyqU-LYfuUZ3-89">
          <mxGeometry x="-0.0023" relative="1" as="geometry">
            <mxPoint x="-1" as="offset" />
          </mxGeometry>
        </mxCell>
        <mxCell id="Q3Qc4RJNEyqU-LYfuUZ3-92" style="edgeStyle=orthogonalEdgeStyle;rounded=0;orthogonalLoop=1;jettySize=auto;html=1;strokeColor=#E07A5F;fontColor=#393C56;fillColor=#F2CC8F;entryX=0;entryY=0.25;entryDx=0;entryDy=0;" edge="1" parent="Q3Qc4RJNEyqU-LYfuUZ3-18" target="Q3Qc4RJNEyqU-LYfuUZ3-91">
          <mxGeometry relative="1" as="geometry">
            <mxPoint x="500" y="365" as="sourcePoint" />
            <mxPoint x="620" y="263" as="targetPoint" />
          </mxGeometry>
        </mxCell>
        <mxCell id="Q3Qc4RJNEyqU-LYfuUZ3-97" style="edgeStyle=orthogonalEdgeStyle;rounded=0;orthogonalLoop=1;jettySize=auto;html=1;exitX=0;exitY=0.75;exitDx=0;exitDy=0;strokeColor=#E07A5F;fontColor=#393C56;fillColor=#F2CC8F;entryX=0.996;entryY=0.927;entryDx=0;entryDy=0;entryPerimeter=0;" edge="1" parent="Q3Qc4RJNEyqU-LYfuUZ3-18" source="Q3Qc4RJNEyqU-LYfuUZ3-91" target="Q3Qc4RJNEyqU-LYfuUZ3-42">
          <mxGeometry relative="1" as="geometry">
            <mxPoint x="510" y="290" as="targetPoint" />
          </mxGeometry>
        </mxCell>
        <mxCell id="Q3Qc4RJNEyqU-LYfuUZ3-98" value="Sucess" style="edgeLabel;html=1;align=center;verticalAlign=middle;resizable=0;points=[];strokeColor=#E07A5F;fontColor=#393C56;fillColor=#F2CC8F;" vertex="1" connectable="0" parent="Q3Qc4RJNEyqU-LYfuUZ3-97">
          <mxGeometry x="0.2647" y="-2" relative="1" as="geometry">
            <mxPoint as="offset" />
          </mxGeometry>
        </mxCell>
        <mxCell id="Q3Qc4RJNEyqU-LYfuUZ3-66" style="edgeStyle=orthogonalEdgeStyle;rounded=0;orthogonalLoop=1;jettySize=auto;html=1;exitX=1;exitY=0.5;exitDx=0;exitDy=0;entryX=0.5;entryY=1;entryDx=0;entryDy=0;strokeColor=#E07A5F;fontColor=#393C56;fillColor=#F2CC8F;" edge="1" parent="Q3Qc4RJNEyqU-LYfuUZ3-5" source="Q3Qc4RJNEyqU-LYfuUZ3-48" target="Q3Qc4RJNEyqU-LYfuUZ3-17">
          <mxGeometry relative="1" as="geometry" />
        </mxCell>
        <mxCell id="Q3Qc4RJNEyqU-LYfuUZ3-67" value="Create a lock with string + id" style="edgeLabel;html=1;align=center;verticalAlign=middle;resizable=0;points=[];strokeColor=#E07A5F;fontColor=#393C56;fillColor=#F2CC8F;" vertex="1" connectable="0" parent="Q3Qc4RJNEyqU-LYfuUZ3-66">
          <mxGeometry x="-0.0589" y="1" relative="1" as="geometry">
            <mxPoint as="offset" />
          </mxGeometry>
        </mxCell>
        <mxCell id="Q3Qc4RJNEyqU-LYfuUZ3-74" style="edgeStyle=orthogonalEdgeStyle;rounded=0;orthogonalLoop=1;jettySize=auto;html=1;exitX=1;exitY=0.5;exitDx=0;exitDy=0;entryX=0;entryY=0.15;entryDx=0;entryDy=0;entryPerimeter=0;strokeColor=#E07A5F;fontColor=#393C56;fillColor=#F2CC8F;" edge="1" parent="Q3Qc4RJNEyqU-LYfuUZ3-5" source="Q3Qc4RJNEyqU-LYfuUZ3-46" target="Q3Qc4RJNEyqU-LYfuUZ3-10">
          <mxGeometry relative="1" as="geometry" />
        </mxCell>
        <mxCell id="Q3Qc4RJNEyqU-LYfuUZ3-75" value="Retrieve user" style="edgeLabel;html=1;align=center;verticalAlign=middle;resizable=0;points=[];strokeColor=#E07A5F;fontColor=#393C56;fillColor=#F2CC8F;" vertex="1" connectable="0" parent="Q3Qc4RJNEyqU-LYfuUZ3-74">
          <mxGeometry x="-0.0076" y="2" relative="1" as="geometry">
            <mxPoint as="offset" />
          </mxGeometry>
        </mxCell>
        <mxCell id="Q3Qc4RJNEyqU-LYfuUZ3-76" style="edgeStyle=orthogonalEdgeStyle;rounded=0;orthogonalLoop=1;jettySize=auto;html=1;exitX=-0.009;exitY=0.206;exitDx=0;exitDy=0;exitPerimeter=0;entryX=1;entryY=0.75;entryDx=0;entryDy=0;strokeColor=#E07A5F;fontColor=#393C56;fillColor=#F2CC8F;" edge="1" parent="Q3Qc4RJNEyqU-LYfuUZ3-5" source="Q3Qc4RJNEyqU-LYfuUZ3-10" target="Q3Qc4RJNEyqU-LYfuUZ3-46">
          <mxGeometry relative="1" as="geometry" />
        </mxCell>
        <mxCell id="Q3Qc4RJNEyqU-LYfuUZ3-77" value="User retrieved" style="edgeLabel;html=1;align=center;verticalAlign=middle;resizable=0;points=[];strokeColor=#E07A5F;fontColor=#393C56;fillColor=#F2CC8F;" vertex="1" connectable="0" parent="Q3Qc4RJNEyqU-LYfuUZ3-76">
          <mxGeometry x="-0.0048" y="1" relative="1" as="geometry">
            <mxPoint as="offset" />
          </mxGeometry>
        </mxCell>
        <mxCell id="Q3Qc4RJNEyqU-LYfuUZ3-84" style="edgeStyle=orthogonalEdgeStyle;rounded=0;orthogonalLoop=1;jettySize=auto;html=1;exitX=1;exitY=0.25;exitDx=0;exitDy=0;strokeColor=#E07A5F;fontColor=#393C56;fillColor=#F2CC8F;" edge="1" parent="Q3Qc4RJNEyqU-LYfuUZ3-5" source="Q3Qc4RJNEyqU-LYfuUZ3-59">
          <mxGeometry relative="1" as="geometry">
            <mxPoint x="1120" y="225" as="targetPoint" />
          </mxGeometry>
        </mxCell>
        <mxCell id="Q3Qc4RJNEyqU-LYfuUZ3-86" value="Retrieve Tier" style="edgeLabel;html=1;align=center;verticalAlign=middle;resizable=0;points=[];strokeColor=#E07A5F;fontColor=#393C56;fillColor=#F2CC8F;" vertex="1" connectable="0" parent="Q3Qc4RJNEyqU-LYfuUZ3-84">
          <mxGeometry x="-0.0517" y="-1" relative="1" as="geometry">
            <mxPoint x="-1" as="offset" />
          </mxGeometry>
        </mxCell>
        <mxCell id="Q3Qc4RJNEyqU-LYfuUZ3-87" style="edgeStyle=orthogonalEdgeStyle;rounded=0;orthogonalLoop=1;jettySize=auto;html=1;strokeColor=#E07A5F;fontColor=#393C56;fillColor=#F2CC8F;" edge="1" parent="Q3Qc4RJNEyqU-LYfuUZ3-5">
          <mxGeometry relative="1" as="geometry">
            <mxPoint x="1130" y="255" as="sourcePoint" />
            <mxPoint x="969" y="255" as="targetPoint" />
          </mxGeometry>
        </mxCell>
        <mxCell id="Q3Qc4RJNEyqU-LYfuUZ3-88" value="Tier retrieved" style="edgeLabel;html=1;align=center;verticalAlign=middle;resizable=0;points=[];strokeColor=#E07A5F;fontColor=#393C56;fillColor=#F2CC8F;" vertex="1" connectable="0" parent="Q3Qc4RJNEyqU-LYfuUZ3-87">
          <mxGeometry x="-0.4601" relative="1" as="geometry">
            <mxPoint x="-1" y="1" as="offset" />
          </mxGeometry>
        </mxCell>
        <mxCell id="Q3Qc4RJNEyqU-LYfuUZ3-93" style="edgeStyle=orthogonalEdgeStyle;rounded=0;orthogonalLoop=1;jettySize=auto;html=1;exitX=1;exitY=0.5;exitDx=0;exitDy=0;entryX=0.325;entryY=1;entryDx=0;entryDy=0;entryPerimeter=0;strokeColor=#E07A5F;fontColor=#393C56;fillColor=#F2CC8F;" edge="1" parent="Q3Qc4RJNEyqU-LYfuUZ3-5" source="Q3Qc4RJNEyqU-LYfuUZ3-91" target="Q3Qc4RJNEyqU-LYfuUZ3-10">
          <mxGeometry relative="1" as="geometry" />
        </mxCell>
        <mxCell id="Q3Qc4RJNEyqU-LYfuUZ3-94" value="Issue points" style="edgeLabel;html=1;align=center;verticalAlign=middle;resizable=0;points=[];strokeColor=#E07A5F;fontColor=#393C56;fillColor=#F2CC8F;" vertex="1" connectable="0" parent="Q3Qc4RJNEyqU-LYfuUZ3-93">
          <mxGeometry x="-0.3151" relative="1" as="geometry">
            <mxPoint as="offset" />
          </mxGeometry>
        </mxCell>
        <mxCell id="Q3Qc4RJNEyqU-LYfuUZ3-95" style="edgeStyle=orthogonalEdgeStyle;rounded=0;orthogonalLoop=1;jettySize=auto;html=1;exitX=0.5;exitY=1;exitDx=0;exitDy=0;exitPerimeter=0;entryX=1;entryY=0.75;entryDx=0;entryDy=0;strokeColor=#E07A5F;fontColor=#393C56;fillColor=#F2CC8F;" edge="1" parent="Q3Qc4RJNEyqU-LYfuUZ3-5" source="Q3Qc4RJNEyqU-LYfuUZ3-10" target="Q3Qc4RJNEyqU-LYfuUZ3-91">
          <mxGeometry relative="1" as="geometry" />
        </mxCell>
        <mxCell id="Q3Qc4RJNEyqU-LYfuUZ3-96" value="Sucess" style="edgeLabel;html=1;align=center;verticalAlign=middle;resizable=0;points=[];strokeColor=#E07A5F;fontColor=#393C56;fillColor=#F2CC8F;" vertex="1" connectable="0" parent="Q3Qc4RJNEyqU-LYfuUZ3-95">
          <mxGeometry x="-0.006" y="1" relative="1" as="geometry">
            <mxPoint as="offset" />
          </mxGeometry>
        </mxCell>
        <mxCell id="Q3Qc4RJNEyqU-LYfuUZ3-12" value="&lt;font style=&quot;font-size: 18px;&quot;&gt;Consumers&lt;/font&gt;" style="rounded=1;whiteSpace=wrap;html=1;strokeColor=#6c8ebf;fillColor=#dae8fc;labelPosition=center;verticalLabelPosition=top;align=center;verticalAlign=bottom;" vertex="1" parent="1">
          <mxGeometry x="30" y="80" width="180" height="280" as="geometry" />
        </mxCell>
        <mxCell id="Q3Qc4RJNEyqU-LYfuUZ3-14" style="edgeStyle=orthogonalEdgeStyle;rounded=0;orthogonalLoop=1;jettySize=auto;html=1;exitX=1;exitY=0.5;exitDx=0;exitDy=0;exitPerimeter=0;strokeColor=#E07A5F;fontColor=#393C56;fillColor=#F2CC8F;" edge="1" parent="1" source="Q3Qc4RJNEyqU-LYfuUZ3-13">
          <mxGeometry relative="1" as="geometry">
            <mxPoint x="320" y="220" as="targetPoint" />
          </mxGeometry>
        </mxCell>
        <mxCell id="Q3Qc4RJNEyqU-LYfuUZ3-13" value="" style="strokeWidth=2;html=1;shape=mxgraph.flowchart.start_2;whiteSpace=wrap;strokeColor=#E07A5F;fontColor=#393C56;fillColor=#F2CC8F;" vertex="1" parent="1">
          <mxGeometry x="85" y="190" width="70" height="60" as="geometry" />
        </mxCell>
        <mxCell id="Q3Qc4RJNEyqU-LYfuUZ3-15" value="&lt;b style=&quot;&quot;&gt;&lt;font style=&quot;font-size: 24px;&quot;&gt;Issuance Swimlane Diagram&lt;/font&gt;&lt;/b&gt;" style="text;html=1;align=center;verticalAlign=middle;resizable=0;points=[];autosize=1;strokeColor=none;fillColor=none;fontColor=#393C56;" vertex="1" parent="1">
          <mxGeometry x="445" width="350" height="40" as="geometry" />
        </mxCell>
      </root>
    </mxGraphModel>
  </diagram>
</mxfile>
